<svg width="189" height="111" viewBox="0 0 189 111" fill="none" xmlns="http://www.w3.org/2000/svg">
<g clip-path="url(#clip0_405_202)">
<path d="M31.3941 99.3278C31.3941 99.3278 35.7831 89.9278 25.6701 82.6278C15.5571 75.3278 13.2701 70.0278 13.2701 70.0278C13.2701 70.0278 9.85409 87.1748 16.0371 95.3118V107.087H31.0071L31.3941 99.3278Z" fill="#4E8FB7"/>
<path d="M22.3422 106.448C22.3422 106.448 21.8422 99.8761 28.6862 95.4761C35.5302 91.0761 35.4262 86.6401 35.4262 86.6401C35.4262 86.6401 40.6792 99.2261 34.0392 106.448H22.3422Z" fill="#70B2DD"/>
<path d="M23.8601 106.448C24.0491 103.69 23.4334 100.937 22.0877 98.523C20.7419 96.1087 18.7241 94.1372 16.2792 92.8478C7.6412 88.1008 5.82816 81.9858 5.82816 81.9858C5.82816 81.9858 1.05826 97.4118 8.88126 106.449L23.8601 106.448Z" fill="#ABDAF7"/>
<path opacity="0.36" d="M187.59 79.976C187.537 80.262 187.485 80.541 187.433 80.821C183.67 101.062 172.659 109.959 172.659 109.959H7.44797C7.44797 109.959 -2.659 92.187 1.785 76.677C1.852 76.441 1.91999 76.205 1.99399 75.977C4.91899 66.744 13.171 58.427 32.023 55.299C36.078 54.626 39.81 53.982 43.252 53.367C43.738 53.274 44.21 53.188 44.681 53.102C56.643 50.912 64.981 48.958 71.328 46.725H71.336C71.8 46.56 72.256 46.389 72.704 46.225C85.59 41.369 89.999 35.064 101.55 22.252C102.447 21.2573 103.405 20.2816 104.423 19.325C104.647 19.11 104.872 18.903 105.104 18.702C111.881 12.6399 119.863 8.07887 128.526 5.31796C128.765 5.23896 129.005 5.16096 129.244 5.08896C140.667 1.62496 153.078 1.57496 163.574 7.63696C163.974 7.86596 164.367 8.10196 164.764 8.35296C173.075 13.599 180.077 22.868 184.264 37.548C189.255 55.104 189.465 69.126 187.59 79.976Z" fill="white"/>
<path d="M77.3771 88.7403C74.4761 93.244 70.9825 97.337 66.9902 100.909V105.324H77.3082C80.7159 103.398 83.9878 101.242 87.1011 98.8692C87.1011 98.8692 89.2421 85.2113 77.3771 88.7403Z" fill="#F49187"/>
<path d="M142.248 97.1372C142.248 97.1372 141.767 105.9 139.477 106.447C137.187 106.994 127.805 98.8672 127.805 98.8672L126.738 94.9892L133.689 90.1382C133.689 90.1382 141.969 92.5722 142.248 97.1372Z" fill="#F49187"/>
<path d="M142.253 97.1371C140.053 93.1211 126.507 96.0371 126.507 96.0371L136.147 105.318H92.8259C94.2609 100.542 93.4059 88.9181 93.4059 88.9181C93.3989 89.0061 93.383 89.0861 93.368 89.1741C93.0706 91.83 91.9468 94.3254 90.155 96.3081C89.972 98.6891 87.1019 98.8641 87.1019 98.8641C86.9242 97.0362 86.4256 95.2539 85.629 93.5991C84.9129 92.0444 83.739 90.7456 82.2644 89.8765C80.7898 89.0074 79.0849 88.6095 77.3779 88.7361C76.7979 85.8151 80.0489 85.0851 80.0489 85.0851C80.0489 85.0851 84.0489 62.8131 89.8719 58.4311C95.6949 54.0491 105.19 51.8591 105.19 51.8591L114.967 51.2241C114.967 51.2241 134.139 54.8751 137.956 61.1701C141.773 67.4651 141.108 91.2921 141.108 91.2921C144.161 93.6681 142.253 97.1371 142.253 97.1371Z" fill="url(#paint0_linear_405_202)"/>
<path opacity="0.5" d="M126.506 96.0413C126.506 96.0413 128.128 82.5323 122.878 70.7573C122.878 70.7573 123.736 88.6483 116.104 93.6683C108.472 98.6883 95.4969 97.6843 92.2529 106.447L120.875 106.204L126.506 96.0413Z" fill="#F6613A"/>
<path opacity="0.5" d="M93.366 89.1772C93.0686 91.8331 91.9447 94.3285 90.153 96.3112C89.97 98.6922 87.1 98.8672 87.1 98.8672C86.9223 97.0393 86.4236 95.257 85.627 93.6022C87.6102 91.7657 89.0738 89.4383 89.8699 86.8552C91.8929 80.4552 90.602 73.5063 90.511 73.0103C91.8533 78.3229 92.8075 83.7262 93.366 89.1772Z" fill="#F6613A"/>
<path d="M114.103 100.697C114.103 100.697 124.883 93.486 134.043 96.407C143.203 99.328 142.443 105.352 139.481 106.448H116.647L114.103 100.697Z" fill="#FEB19E"/>
<path d="M116.984 51.5562C116.984 51.5562 114.74 63.6052 108.062 63.6712C102.231 63.7222 103.582 56.4052 104.016 54.5432C104.077 54.2662 104.123 54.1122 104.123 54.1122L101.703 45.2912L114.549 38.7852L114.808 40.1362V40.1581L116.984 51.5562Z" fill="#FEB19E"/>
<path d="M104.013 54.5441C104.074 54.2671 104.12 54.1131 104.12 54.1131L101.7 45.2921L114.546 38.7861L114.805 40.1371V40.1591C116.492 54.5441 104.249 54.5441 104.013 54.5441Z" fill="#FF856A"/>
<path d="M116.25 34.475C117.374 32.2318 118.086 29.8044 118.35 27.309C118.731 23.567 117.634 22.7 116.012 22.7C116.012 22.7 115.153 18.455 113.102 16.995C111.051 15.535 102.702 17.68 99.502 19.506C96.302 21.332 93.969 16.306 92.49 16.512C91.011 16.718 90.725 20.601 91.87 22.336C91.87 22.336 89.198 20.921 88.77 19.46C88.342 17.999 85.288 20.647 86.385 26.078C87.482 31.509 90.011 32.194 90.011 32.194C90.011 32.194 90.4879 37.945 95.4019 38.584C100.316 39.223 113.29 38.128 113.29 38.128L116.25 34.475Z" fill="url(#paint1_linear_405_202)"/>
<path d="M93.4009 32.42C93.4009 32.42 95.7858 48.029 101.801 50.037C107.816 52.045 112.836 45.906 113.601 44.263C114.172 42.6188 114.536 40.91 114.685 39.176C114.685 39.176 116.733 39.631 116.971 36.162C117.209 32.693 114.062 30.64 113.298 36.618C113.298 36.618 110.357 35.066 111.247 29.772C108.972 31.6634 106.127 32.7352 103.17 32.815C98.4629 32.815 102.534 29.772 102.534 29.772C99.9206 31.7513 96.6677 32.6945 93.4009 32.42Z" fill="#FEB19E"/>
<path d="M130.958 106.448H91.7781V104.44H130.958V106.448Z" fill="#ABDAF7"/>
<path d="M130.958 106.448H118.873V104.44H130.958V106.448Z" fill="#70B2DD"/>
<path d="M124.343 104.5C124.343 104.5 120.878 99.5528 115.681 99.6328C111.748 99.6928 111.602 102.066 111.602 102.066C111.261 102.019 110.915 102.047 110.586 102.15C110.258 102.252 109.957 102.426 109.703 102.658C109.45 102.891 109.251 103.177 109.121 103.495C108.991 103.813 108.933 104.156 108.951 104.5H124.343Z" fill="#FFC7AE"/>
<path d="M75.623 104.196C75.623 104.196 75.815 101.458 74.542 101.096C74.1448 101.006 73.7311 101.02 73.3411 101.138C72.9511 101.255 72.5981 101.471 72.3161 101.765C72.3161 101.765 71.362 97.7487 67.8 97.6267C64.238 97.5047 57.815 100.974 61.758 104.199L75.623 104.196Z" fill="#FEB19E"/>
<path d="M84.7791 105.323C84.7722 105.628 84.6447 105.917 84.4244 106.128C84.2041 106.339 83.909 106.454 83.6041 106.448H62.1721C62.0196 106.456 61.8669 106.432 61.7236 106.379C61.5803 106.326 61.4494 106.245 61.3386 106.14C61.2279 106.035 61.1396 105.908 61.0793 105.768C61.0191 105.627 60.9879 105.476 60.9879 105.323C60.9879 105.171 61.0191 105.019 61.0793 104.879C61.1396 104.739 61.2279 104.612 61.3386 104.507C61.4494 104.402 61.5803 104.32 61.7236 104.267C61.8669 104.214 62.0196 104.191 62.1721 104.199H83.6041C83.9088 104.192 84.2037 104.307 84.424 104.518C84.6443 104.729 84.772 105.018 84.7791 105.323Z" fill="#70B2DD"/>
<path d="M78.4221 105.323C78.4153 105.628 78.2875 105.918 78.067 106.129C77.8465 106.34 77.5512 106.454 77.2461 106.448H62.1721C62.0196 106.456 61.8669 106.432 61.7236 106.379C61.5803 106.326 61.4494 106.245 61.3386 106.14C61.2279 106.035 61.1396 105.908 61.0793 105.768C61.0191 105.627 60.9879 105.476 60.9879 105.323C60.9879 105.171 61.0191 105.019 61.0793 104.879C61.1396 104.739 61.2279 104.612 61.3386 104.507C61.4494 104.402 61.5803 104.32 61.7236 104.267C61.8669 104.214 62.0196 104.191 62.1721 104.199H77.2461C77.551 104.192 77.8461 104.307 78.0667 104.517C78.2872 104.728 78.415 105.018 78.4221 105.323Z" fill="#ABDAF7"/>
<path d="M72.8882 102.386L69.0881 90.5079C68.9992 90.2495 68.8156 90.0344 68.5743 89.906C68.3331 89.7775 68.0521 89.7454 67.7881 89.8159C67.6459 89.8481 67.5123 89.9104 67.3962 89.9987C67.2802 90.0869 67.1844 90.199 67.1154 90.3275C67.0463 90.4559 67.0057 90.5977 66.9962 90.7432C66.9867 90.8887 67.0085 91.0345 67.0602 91.1709L71.6022 102.705C71.8185 102.818 72.0687 102.848 72.3055 102.789C72.5424 102.73 72.7497 102.587 72.8882 102.386Z" fill="#525559"/>
<path d="M46.1269 72.8324C46.5409 75.2324 45.6399 77.3664 44.1149 77.6074C42.5899 77.8484 41.0149 76.1014 40.6049 73.7074C40.1949 71.3134 41.0919 69.1744 42.6169 68.9334C44.1419 68.6924 45.7139 70.4364 46.1269 72.8324Z" fill="white" stroke="#F230DB" stroke-miterlimit="10"/>
<path d="M69.3169 93.9462H28.628C27.7693 93.9531 26.9276 93.7068 26.2082 93.2379C25.4887 92.7691 24.9234 92.0986 24.5829 91.3103C19.8199 79.9333 16.3009 68.8703 14.8749 58.3333C14.8085 57.7321 14.8716 57.1237 15.0598 56.549C15.2481 55.9743 15.5573 55.4465 15.9666 55.0013C16.3759 54.556 16.8757 54.2035 17.4325 53.9675C17.9894 53.7316 18.5903 53.6176 19.1949 53.6333H60.44C61.4621 53.6153 62.4569 53.963 63.2453 54.6137C64.0337 55.2644 64.5637 56.1753 64.7399 57.1823C66.5974 67.8494 69.5067 78.3064 73.425 88.4003C73.6446 89.0427 73.7049 89.7288 73.6007 90.3997C73.4966 91.0706 73.2311 91.7062 72.8269 92.2518C72.4228 92.7973 71.8923 93.2366 71.2809 93.5318C70.6695 93.8269 69.9955 93.9692 69.3169 93.9462Z" fill="#90C6E0"/>
<path d="M67.6678 93.9462H28.6278C27.7691 93.9531 26.9274 93.7067 26.208 93.2379C25.4885 92.769 24.9233 92.0986 24.5829 91.3102C19.8199 79.9332 16.3009 68.8702 14.8739 58.3332C14.8076 57.7321 14.8707 57.1238 15.0591 56.5492C15.2474 55.9745 15.5566 55.4468 15.9658 55.0016C16.375 54.5564 16.8748 54.2039 17.4316 53.9679C17.9884 53.7318 18.5893 53.6177 19.1938 53.6332H58.7828C59.8043 53.6175 60.798 53.9661 61.5859 54.6164C62.3738 55.2667 62.9046 56.1763 63.0829 57.1822C64.9345 67.85 67.8414 78.3073 71.7608 88.4002C71.9813 89.0414 72.0427 89.7266 71.9398 90.3967C71.8369 91.0669 71.5728 91.7021 71.1701 92.2476C70.7675 92.7932 70.2385 93.2328 69.6284 93.5287C69.0183 93.8245 68.3455 93.9678 67.6678 93.9462Z" fill="#ABDAF7"/>
<path d="M65.6641 106.448H50.0331C48.944 106.46 47.8776 106.138 46.9779 105.524C46.0783 104.91 45.3888 104.035 45.0031 103.016L40.3241 87.3742C42.9111 87.3812 45.4531 87.3672 47.9491 87.3672C48.7811 87.3672 49.613 87.3672 50.437 87.3742L54.1621 99.5402C54.4347 100.225 54.8834 100.825 55.463 101.281C56.0426 101.736 56.7322 102.03 57.462 102.132L63.3081 103.008C63.7802 103.073 64.2218 103.278 64.5758 103.597C64.9298 103.916 65.1797 104.334 65.2931 104.797L65.6641 106.448Z" fill="#90C6E0"/>
<g style="mix-blend-mode:multiply" opacity="0.35">
<path d="M57.459 102.132L56.1389 102.015C55.2401 101.951 54.3761 101.642 53.6401 101.122C52.9041 100.602 52.3241 99.8908 51.9629 99.0652L47.949 87.3652C48.781 87.3652 49.6119 87.3652 50.4369 87.3722L54.162 99.5382C54.4339 100.223 54.8821 100.824 55.4612 101.279C56.0402 101.735 56.7295 102.029 57.459 102.132Z" fill="#90C6E0"/>
</g>
<path d="M45.8119 73.3482C46.3919 75.6612 45.6499 77.8132 44.1559 78.1562C42.6619 78.4992 40.9799 76.9022 40.4009 74.5892C39.8219 72.2762 40.5629 70.1242 42.0579 69.7812C43.5529 69.4382 45.2329 71.0352 45.8119 73.3482Z" fill="white"/>
<path d="M-0.00012207 106.448H185.849V110.099H-0.00012207V106.448Z" fill="#70B2DD"/>
<path d="M144.634 106.448H185.849V110.099H144.634V106.448Z" fill="#4E8FB7"/>
<path d="M166.386 91.5392L164.605 80.9512L158.944 81.6202L161.044 92.1462L166.386 91.5392Z" fill="#70B2DD"/>
<path d="M166.222 90.5652L168.183 77.4972C168.2 77.3979 168.237 77.3031 168.291 77.218C168.345 77.133 168.415 77.0595 168.498 77.0017C168.58 76.9439 168.673 76.903 168.772 76.8813C168.87 76.8596 168.972 76.8575 169.071 76.8752C169.168 76.8882 169.261 76.9202 169.346 76.9695C169.43 77.0187 169.504 77.0842 169.563 77.162C169.622 77.2399 169.665 77.3287 169.689 77.4233C169.714 77.5179 169.72 77.6164 169.706 77.7132L167.532 91.2342H168.355L171.273 80.8762C171.333 80.6813 171.465 80.5169 171.643 80.417C171.82 80.317 172.029 80.2892 172.227 80.3392C172.326 80.3605 172.42 80.4016 172.503 80.4601C172.586 80.5186 172.656 80.5932 172.71 80.6795C172.763 80.7657 172.798 80.8619 172.814 80.9622C172.829 81.0625 172.824 81.1649 172.799 81.2632L170.075 91.2342L167.34 92.4512L166.222 90.5652Z" fill="#4E8FB7"/>
<path d="M171.984 90.5649V104.045C171.971 104.631 171.725 105.188 171.302 105.593C170.878 105.998 170.311 106.219 169.725 106.206H161.587C161.001 106.219 160.434 105.998 160.01 105.593C159.587 105.188 159.342 104.631 159.328 104.045V90.5649H171.984Z" fill="#ABDAF7"/>
<path d="M159.326 90.5649H171.983V93.7269H159.326V90.5649Z" fill="#90C6E0"/>
<g style="mix-blend-mode:multiply" opacity="0.35">
<path d="M19.0878 34.6908C9.14389 34.6908 1.08278 26.9784 1.08278 17.4648C1.08278 7.95111 9.14389 0.23877 19.0878 0.23877C29.0317 0.23877 37.0928 7.95111 37.0928 17.4648C37.0928 26.9784 29.0317 34.6908 19.0878 34.6908Z" fill="#70B2DD"/>
</g>
<path d="M18.788 32.418C9.43117 32.418 1.84598 25.161 1.84598 16.209C1.84598 7.25702 9.43117 0 18.788 0C28.1448 0 35.73 7.25702 35.73 16.209C35.73 25.161 28.1448 32.418 18.788 32.418Z" fill="#70B2DD"/>
<path d="M18.7889 28.1342C11.9053 28.1342 6.32493 22.7952 6.32493 16.2092C6.32493 9.62318 11.9053 4.28418 18.7889 4.28418C25.6726 4.28418 31.2529 9.62318 31.2529 16.2092C31.2529 22.7952 25.6726 28.1342 18.7889 28.1342Z" fill="#D9F1FF"/>
<path d="M25.8066 15.6669H19.6666V7.72891C19.6513 7.42481 19.5197 7.13822 19.2991 6.9284C19.0784 6.71858 18.7856 6.60156 18.4811 6.60156C18.1766 6.60156 17.8838 6.71858 17.6631 6.9284C17.4425 7.13822 17.3109 7.42481 17.2956 7.72891V17.7499H25.8066C25.9461 17.7542 26.085 17.7305 26.2151 17.6801C26.3453 17.6297 26.464 17.5537 26.5641 17.4565C26.6643 17.3594 26.7441 17.2431 26.7985 17.1146C26.8529 16.9861 26.8809 16.848 26.8809 16.7084C26.8809 16.5689 26.8529 16.4307 26.7985 16.3022C26.7441 16.1737 26.6643 16.0574 26.5641 15.9603C26.464 15.8631 26.3453 15.7871 26.2151 15.7367C26.085 15.6863 25.9461 15.6626 25.8066 15.6669Z" fill="#70B2DD"/>
</g>
<defs>
<linearGradient id="paint0_linear_405_202" x1="548.296" y1="100.937" x2="552.787" y2="60.7845" gradientUnits="userSpaceOnUse">
<stop stop-color="#F79239"/>
<stop offset="1" stop-color="#F7C759"/>
</linearGradient>
<linearGradient id="paint1_linear_405_202" x1="573.63" y1="27.645" x2="542.741" y2="27.645" gradientUnits="userSpaceOnUse">
<stop stop-color="#3F2323"/>
<stop offset="1" stop-color="#5E3434"/>
</linearGradient>
<clipPath id="clip0_405_202">
<rect width="188.68" height="110.099" fill="white" transform="matrix(-1 0 0 1 188.68 0)"/>
</clipPath>
</defs>
</svg>
